<?xml version="1.0" encoding="UTF-8" standalone="no"?>
<!--
  Eucalyptus leaves silhouette by NunoPequito
  Source: https://openclipart.org/detail/174679/eucalyptus-leaves-silhouette
  License: CC0 / Public Domain
-->
<svg xmlns="http://www.w3.org/2000/svg" viewBox="0 0 327.86 534.5" fill="currentColor">
  <g transform="translate(-161.26 -243.35)">
    <path d="m174.63 243.44c-2.2074 0.23238-3.8422 1.0627-10.262 0.32068-1.7224 0.90277-3.8138-0.90821-2.8861 0.80169 3.8199 4.1876 11.534 3.2088 17.317 4.9705 5.5757 1.6986 11.18 3.5108 16.675 5.4515 5.9035 2.0848 11.541 4.7464 17.477 6.7342 4.255 1.4246 8.6801 2.4308 12.987 3.6878 5.8338 1.7026 11.682 3.4595 17.477 5.2912 4.8399 1.5296 9.6414 2.9689 14.43 4.6498 5.0072 1.7575 9.7725 4.2912 14.912 5.6119 0.10242 0.0263 0.21812-0.0256 0.32068 0 0.0612 0.0153 0.0991 0.1453 0.16034 0.16034 0.32212 0.16105 4.2764 2.0899 6.0929 3.5274 1.4926 1.1812 2.588 2.7421 3.8481 4.1688 2.0308 2.3007 4.0082 4.5436 5.7722 7.0549 3.7753 5.3746 6.9051 11.19 10.262 16.836 2.7096 4.5573 5.4515 9.1493 8.0169 13.789 1.9097 3.4536 3.901 6.9533 5.4515 10.582 0.98769 2.3112 2.0254 4.5702 2.4051 7.0549 0.66855 4.3945 0.11032 8.8846-0.32067 13.308-0.44023 4.4846-1.5146 8.8616-2.2448 13.308-0.70856 4.3146-1.5421 8.6488-2.0844 12.987-0.60031 4.801-1.688 9.6092-1.2827 14.43 0.18471 2.1931 1.3571 4.2264 1.6034 6.4136 0.39097 3.4848-0.0795 7.084-0.32068 10.582-0.38225 5.5848-1.0418 11.124-1.7637 16.675-1.078 8.2943-2.7573 16.399-3.8481 24.692-0.78758 5.9885-1.6419 12.085-1.9241 18.118-0.28733 6.1263 0.16034 12.306 0.16034 18.439-0.005 5.0692-0.75449 10.038-0.16034 15.072 0.7491 6.3456 4.3882 12.215 4.6498 18.599 0.1411 3.423-1.1621 6.7045-1.6034 10.101-0.68497 5.2358-1.1929 10.609-1.6034 15.874-0.3253 4.1876-0.95434 8.318-0.64136 12.506 0.22525 2.9986-0.95433 11.921-0.64135 14.912 0.24884 2.3649-4.873 12.536-4.9705 14.912-1.981 43.227 13.169 7.1877-10.262 41.207-4.4269 7.0996-19.888 32.003-24.532 38.962-4.8753 7.3062-9.9592 14.634-14.27 22.287-2.802 4.9743-5.3538 10.117-7.5359 15.393-3.3894 8.1923-3.8143 17.587-8.6583 25.013-2.4197 3.7091-6.834 5.8336-9.7807 9.1393-6.4962 7.288-11.089 15.921-17.156 23.57-4.4125 5.5623-5.1308 7.2152-5.1308 7.2152s2.1526-0.88414 8.498-4.4895c3.4228-1.9445 7.2124-2.9604 10.903-4.3292 3.8317-1.421 7.7932-2.548 11.544-4.1688 3.743-1.6169 7.527-3.1666 10.903-5.4515 1.5064-1.0197 2.7676-2.5281 4.1688-3.6878 1.8214-1.5069 3.9218-2.6776 5.6118-4.3291 2.3392-2.2842 4.1401-4.9144 6.0929-7.5359 2.4197-3.2479 4.6365-6.7391 6.8946-10.101 1.8132-2.6998 3.6721-5.4549 5.4515-8.1773 2.1216-3.2473 3.8997-6.6969 6.2532-9.7807 1.5962-2.0919 3.6108-3.7472 5.2912-5.7722 1.452-1.7504 2.6149-3.6543 4.0085-5.4515 1.5249-1.9658 3.2055-3.9068 4.6498-5.9325 1.0046-1.4093 1.9513-2.8726 2.8861-4.3292 0.96768-1.5082 2.0821-2.888 2.8861-4.4895 0.91072-1.8145 1.0875-4.0034 2.0844-5.7722 0.66444-1.1802 1.802-2.088 2.5654-3.2068 1.04-1.5232 1.754-3.0822 2.7258-4.6498 0.97589-1.5753 1.7406-3.335 3.0464-4.6498 0.78707-0.7923 1.9138-1.3744 2.8861-1.9241 1.5336-0.86691 3.256-1.4146 4.8102-2.2448 1.3653-0.7297 2.609-1.4776 3.8481-2.4051 1.8307-1.3695 3.4495-3.1011 5.1308-4.6498 2.7876-2.5667 5.8256-4.8599 8.3376-7.6963 2.313-2.6106 4.1586-5.596 6.0929-8.498 1.7301-2.5956 3.5924-5.2186 4.9705-8.0169 0.60596-1.2312 0.70216-2.6926 1.443-3.8481 1.4941-2.3322 3.9087-3.8834 5.7722-5.9325 1.293-1.4209 2.2948-3.0064 3.6878-4.3291 1.2227-1.1614 2.8309-1.8396 4.0085-3.0464 1.8168-1.8612 3.345-4.1637 4.6498-6.4136 0.98307-1.6958 1.7576-3.4409 2.4051-5.2912 0.53258-1.5222 0.35583-3.231 1.1224-4.6498 0.39457-0.73063 1.2917-1.2428 1.7637-1.9241 2.4797-3.5592 4.0818-7.6208 5.9325-11.544 1.1057-2.3448 2.147-4.7836 3.0464-7.2152 0.66393-1.7964 1.2866-3.5968 1.7637-5.4515 0.57362-2.2285 0.76706-4.4916 1.2827-6.7342 0.57465-2.4998 1.3058-4.8863 1.9241-7.3756 0.8076-3.2518 1.6221-6.5231 2.4051-9.7807 0.84505-3.5162 1.7948-7.0491 2.5654-10.582 0.67727-3.1025 0.91817-6.2388 1.7637-9.2996 0.54849-1.9839 1.5764-3.9378 2.0844-5.9325 0.98461-3.8684 1.4018-7.9077 1.9241-11.865 0.31452-2.3706 0.75038-4.664 0.80169-7.0549 0.0446-2.6346-0.57465-5.2225-0.64135-7.8566-0.0821-3.0034 0.0834-5.9756 0.16034-8.979 0.10261-4.2558 0.0705-8.5894 0.48101-12.827 0.22366-2.3381 0.63407-4.5883 1.1224-6.8946 0.16717 1.4402 0.33541 2.8864 0.48102 4.3292 0.44638 4.4315 0.41457 8.8878 0.96203 13.308 0.57055 4.6048 1.4097 9.0968 2.4051 13.629 0.58287 2.6536 1.7817 5.1563 2.0844 7.8566 0.19497 1.8046-0.32966 3.6437-0.16034 5.4515 0.31914 3.3855 1.8291 6.566 2.2447 9.941 0.32837 2.6711 0.16034 5.4857 0.16034 8.1773-0.0205 3.444-0.56696 6.8264-0.32068 10.262 0.22473 3.1713 0.88148 6.3638 1.6034 9.46 1.0795 4.6292 3.0054 8.9823 4.0085 13.629 1.1873 5.5018 2.1844 11.051 2.4051 16.675 0.11083 2.8201-0.55285 5.6767-0.48102 8.498 0.11032 4.2211 0.81401 8.4913 1.443 12.667 0.52027 3.4593 1.8625 6.764 1.9241 10.262 0.0616 3.4775-1.0954 6.821-1.6034 10.262-0.55516 3.7559-1.4956 7.5889-1.6034 11.384-0.11647 4.0833 1.2404 8.1026 1.1224 12.186-0.097 3.3528-1.077 6.6283-1.6034 9.941-0.29862 1.8797-0.65803 3.7141-0.8017 5.6118-0.36377 4.7425 0.48871 9.5251 0.16034 14.27-0.20062 2.9049-1.0929 5.7528-1.2827 8.6583-0.2001 3.1228-0.38199 6.2174 0.16034 9.2996 1.0421 5.9248 3.4392 11.611 5.7722 17.156 2.3664 5.6234 4.6547 11.49 8.3376 16.355 4.4105 5.8264 4.884 14.157 16.034 14.751 7.5023-3.6608-0.46434-2.5222-0.96203-3.6878-1.5726-3.6754-5.1498-6.3769-6.0929-10.262-0.64597-2.6498 0.0141-5.4911 0.48102-8.1773 0.39764-2.2824 1.1929-4.5359 1.9241-6.7342 1.0523-3.1658 2.2914-6.2009 3.5274-9.2996 1.5013-3.7624 2.7899-7.6249 4.6498-11.224 1.1283-2.1833 2.6973-4.0814 3.8481-6.2532 1.704-3.2172 3.2942-6.5618 4.6498-9.941 2.7773-6.9251 4.6024-14.238 7.3756-21.165 1.0462-2.6131 2.6778-5.013 3.5275-7.6963 0.70241-2.2173 0.84658-4.6106 1.2827-6.8946 0.31246-1.627 0.52591-3.211 0.96203-4.8102 0.88558-3.2666 2.3384-6.396 3.3671-9.6203 2.1462-6.7274 4.0262-13.521 5.7722-20.363 0.63366-2.486 1.0216-5.0371 1.6034-7.5359 1.0005-4.2943 2.412-8.49 3.2068-12.827 0.4038-2.2025 0.60159-4.3436 0.80169-6.5739 0.15393-1.7477 0.0231-3.5618 0.32068-5.2912 0.43099-2.5076 1.4626-4.9084 2.0844-7.3756 0.92971-3.6893 1.5216-7.3626 2.4051-11.063 0.42124-1.7642 1.1044-3.509 1.443-5.2912 0.77425-4.0838 0.67471-8.3945 1.2827-12.506 0.63777-4.3106 1.8253-8.5085 2.4051-12.827 0.43406-3.2372 0.64263-6.5182 0.80169-9.7807 0.14366-3.0629 0.304-6.0761 0.16034-9.1393-0.16932-3.6138-0.98897-7.1275-1.1224-10.743-0.12314-3.2533 0.37198-6.5255 0.32067-9.7807-0.0308-2.9764-0.27065-6.0099-0.48101-8.979-0.29964-4.23-0.57132-8.462-1.1224-12.667-0.49872-3.81-1.2681-7.6294-2.0844-11.384-0.70805-3.2556-1.6632-6.3724-2.4051-9.6203-0.58184-2.5485-1.1108-5.129-1.6034-7.6963-1.3679-7.1297-2.0854-14.325-4.0085-21.325-1.4998-5.4596-3.7106-10.761-5.7722-16.034-1.803-4.611-3.6357-9.1627-5.7722-13.629-2.0123-4.2056-4.1255-8.3789-6.5739-12.346-1.9241-3.117-4.1601-6.0909-6.4136-8.979-2.3463-3.0076-4.8012-5.9993-7.5359-8.6583-2.7578-2.6808-5.736-5.0754-8.8186-7.3756-3.0877-2.3045-6.2919-4.4724-9.6203-6.4136-4.9194-2.8692-10.086-5.2566-15.232-7.6963-3.8471-1.8236-8.2922-2.5852-11.705-5.1308-2.4536-1.8305-3.8474-4.8134-5.9325-7.0549-4.0087-4.3091-8.4084-8.2823-12.506-12.506-2.1438-2.2095-3.7237-4.9933-6.0929-6.8946 1.0717 0.30605 2.1415 0.63443 3.2068 0.96203 2.6809 0.82442 5.2496 1.6907 7.8566 2.7258 0.83274 0.33094 1.7132 0.84495 2.5654 1.1224 1.2894 0.42022 2.5346 0.46347 3.8481 0.80169 1.255 0.32325 2.7137 0.49421 3.8481 1.1224 1.3299 0.73683 2.1875 2.0873 3.3671 3.0464 1.0298 0.83705 2.2842 1.4512 3.2068 2.4051 0.63058 0.65239 1.2914 1.3929 1.6034 2.2447 0.40534 1.1101-0.1257 2.4334 0.32068 3.5275 0.21036 0.50898 0.41252 1.2693 0.96203 1.2827 0.84505 0.0205 1.3389-1.1931 1.7637-1.9241 0.59364-1.0226 1.0957-2.1848 1.1224-3.3671 0.0513-1.1214-0.50436-2.1824-0.96203-3.2068-0.87173-1.9561-2.0795-3.8736-3.5275-5.4515-1.236-1.3469-2.794-2.3752-4.3291-3.3671-1.3633-0.88081-2.7899-1.7319-4.3292-2.2447-1.7014-0.5667-3.5067-0.78194-5.2912-0.96203-1.6521-0.16675-3.3286 0.09-4.9705-0.16034-3.374-0.51401-6.5267-1.534-9.7807-2.5654-2.4484-0.7764-5.1139-1.5075-7.3756-2.7258-1.1139-0.60005-1.8597-1.8055-3.0464-2.2447-1.4356-0.5312-2.9815-0.0605-4.4895-0.32068-2.2848-0.39559-4.4951-1.3199-6.7342-1.9241-7.3982-1.9972-14.848-3.9335-22.287-5.7722-6.9451-1.7165-13.838-3.3613-20.844-4.8102-6.4084-1.3254-12.949-2.4282-19.401-3.5274-2.7824-0.47409-5.5875-0.8097-8.3376-1.443-8.2258-1.894-16.14-4.7438-24.211-7.2152-7.6819-2.3524-15.227-4.9278-22.928-7.2152-3.7055-1.1006-7.5326-2.0576-11.224-3.2068-3.7671-1.1728-7.4998-2.3838-11.224-3.6878-6.7312-2.3566-13.3-5.0528-20.042-7.3756-5.1832-1.7853-10.29-4.3363-15.713-5.1308-1.0607-0.15541-1.8296-0.0775-2.5654 0zm116.25 40.245c0.69785 0.0981 1.3898 0.20585 2.0844 0.32067 6.2124 1.0267 12.42 2.1569 18.599 3.3671 5.6788 1.1122 11.36 2.2121 16.996 3.5274 5.5054 1.2852 10.941 2.5387 16.355 4.1688 3.7096 1.1169 7.3661 2.6914 11.063 3.8481 0.41996 0.1314 0.86157 0.19322 1.2827 0.32068 10.177 6.7307 11.861 6.8218 17.317 11.224 3.0308 2.4452 5.6952 5.4778 8.3376 8.3376 2.2899 2.4774 4.5816 4.974 6.5739 7.6963 2.3073 3.1528 4.5675 6.3438 6.0929 9.941 0.80503 1.9004 1.4546 3.8739 1.6034 5.9325 0.23551 3.198-0.49512 6.4477-0.96203 9.6203-0.56593 3.8491-1.4613 7.7336-2.2447 11.544-0.90149 4.3882-1.941 8.7686-2.8861 13.148-0.93227 4.3192-2.029 8.4637-2.7258 12.827-0.6747 4.2244-1.2314 8.5496-1.2827 12.827-0.0354 3.1387 0.40021 6.3302 0.64136 9.46 0.0163 0.21262-0.0156 0.42868 0 0.64135-2.0828-5.7712-4.5369-11.4-7.0549-16.996-1.3776-3.0626-2.9256-6.1671-4.4895-9.1393-1.2642-2.4044-2.5257-4.7784-4.0085-7.0549-2.1452-3.2929-4.5706-6.4149-7.0549-9.46-2.5233-3.0927-5.1329-6.2195-8.0169-8.979-2.6054-2.4932-5.4012-4.6407-8.3376-6.7342-2.9548-2.1066-6.2037-3.8804-9.2996-5.7722-2.4176-1.4772-4.6555-3.1148-7.2152-4.3291-2.2899-1.0861-5.0387-1.4272-7.2152-2.7258-1.2186-0.72704-2.1816-1.7453-3.2068-2.7258-1.8235-1.7433-5.1308-5.4515-5.1308-5.4515l-4.8102-7.6963s-7.0613-12.471-10.743-18.599c-4.0677-6.7724-11.036-12.078-12.506-20.042 0.0294-1.2203 2.375-1.9803 2.2447-3.0464z"/>
  </g>
</svg>
